<?xml version="1.0" encoding="UTF-8" standalone="no"?>
<!DOCTYPE svg PUBLIC "-//W3C//DTD SVG 1.1//EN" "http://www.w3.org/Graphics/SVG/1.1/DTD/svg11.dtd">
<svg version="1.1" xmlns="http://www.w3.org/2000/svg" xmlns:xlink="http://www.w3.org/1999/xlink" preserveAspectRatio="xMidYMid meet" viewBox="0 0 640 640" width="1000" height="1000"><defs><path d="M599.14 284.62C599.14 431.16 480.17 550.13 333.63 550.13C187.09 550.13 68.12 431.16 68.12 284.62C68.12 138.08 187.09 19.11 333.63 19.11C480.17 19.11 599.14 138.08 599.14 284.62Z" id="a1bf49gxF1"></path><path d="M365.48 237.28C365.48 299.25 315.17 349.56 253.21 349.56C191.24 349.56 140.93 299.25 140.93 237.28C140.93 175.31 191.24 125 253.21 125C315.17 125 365.48 175.31 365.48 237.28Z" id="d5yct3YwMw"></path><path d="M528.28 240.09C528.28 302.05 477.97 352.36 416.01 352.36C354.04 352.36 303.73 302.05 303.73 240.09C303.73 178.12 354.04 127.81 416.01 127.81C477.97 127.81 528.28 178.12 528.28 240.09Z" id="a9lGly0j07"></path><path d="M335.24 161.62L494.02 320.4L335.24 479.18L176.45 320.4L335.24 161.62Z" id="c8Bc8MjJ5"></path><path d="M285.63 293.13L229.31 293.13L229.31 462.12L285.63 462.12L285.63 293.13Z" id="b1hMKujjo"></path><path d="M173.12 345.98L173.12 402.31L342.11 402.31L342.11 345.98L173.12 345.98Z" id="bbU4GV5xN"></path><path d="M300.92 194.89L300.92 194.89L300.92 275.09L300.92 275.09L300.92 194.89Z" id="d4mne3Virp"></path></defs><g><g><g><g><use xlink:href="#a1bf49gxF1" opacity="1" fill="#000000" fill-opacity="1"></use></g><g><g><use xlink:href="#d5yct3YwMw" opacity="1" fill="#9b1111" fill-opacity="1"></use></g><g><use xlink:href="#a9lGly0j07" opacity="1" fill="#9b1111" fill-opacity="1"></use></g><g><use xlink:href="#c8Bc8MjJ5" opacity="1" fill="#9b1111" fill-opacity="1"></use></g></g><g><use xlink:href="#b1hMKujjo" opacity="1" fill="#fefefe" fill-opacity="1"></use><g><filter id="shadow9047499" x="220.31" y="284.13" width="75.33" height="187.99" filterUnits="userSpaceOnUse" primitiveUnits="userSpaceOnUse"><feFlood></feFlood><feComposite in2="SourceAlpha" operator="out"></feComposite><feGaussianBlur stdDeviation="1"></feGaussianBlur><feOffset dx="1" dy="1" result="afterOffset"></feOffset><feFlood flood-color="#ffffff" flood-opacity="0.8"></feFlood><feComposite in2="afterOffset" operator="in"></feComposite><feMorphology operator="dilate" radius="1"></feMorphology><feComposite in2="SourceAlpha" operator="in"></feComposite></filter><path d="M285.63 293.13L229.31 293.13L229.31 462.12L285.63 462.12L285.63 293.13Z" id="a1PbteY2Vr" fill="white" fill-opacity="1" filter="url(#shadow9047499)"></path></g></g><g><use xlink:href="#bbU4GV5xN" opacity="1" fill="#fefefe" fill-opacity="1"></use><g><filter id="shadow16128921" x="164.12" y="336.98" width="187.99" height="75.33" filterUnits="userSpaceOnUse" primitiveUnits="userSpaceOnUse"><feFlood></feFlood><feComposite in2="SourceAlpha" operator="out"></feComposite><feGaussianBlur stdDeviation="1"></feGaussianBlur><feOffset dx="1" dy="1" result="afterOffset"></feOffset><feFlood flood-color="#ffffff" flood-opacity="0.8"></feFlood><feComposite in2="afterOffset" operator="in"></feComposite><feMorphology operator="dilate" radius="1"></feMorphology><feComposite in2="SourceAlpha" operator="in"></feComposite></filter><path d="M173.12 345.98L173.12 402.31L342.11 402.31L342.11 345.98L173.12 345.98Z" id="a4bGlH0aV" fill="white" fill-opacity="1" filter="url(#shadow16128921)"></path></g></g><g><use xlink:href="#d4mne3Virp" opacity="1" fill="#ffffff" fill-opacity="1"></use></g></g></g></g></svg>